<svg width="19" height="18" viewBox="0 0 19 18" fill="none" xmlns="http://www.w3.org/2000/svg">
<g clip-path="url(#clip0_41_205)">
<path d="M15.1555 12.947L14.1895 11.981V8.23697C14.1895 5.93811 12.9615 4.01365 10.8198 3.50446V2.99526C10.8198 2.37375 10.3181 1.87204 9.69662 1.87204C9.0751 1.87204 8.57339 2.37375 8.57339 2.99526V3.50446C6.42429 4.01365 5.20373 5.93062 5.20373 8.23697V11.981L4.23775 12.947C3.766 13.4188 4.09548 14.2275 4.76192 14.2275H14.6238C15.2978 14.2275 15.6272 13.4188 15.1555 12.947ZM12.6919 12.7299H6.70136V8.23697C6.70136 6.37991 7.83207 4.8673 9.69662 4.8673C11.5612 4.8673 12.6919 6.37991 12.6919 8.23697V12.7299ZM9.69662 16.4739C10.5203 16.4739 11.1942 15.8 11.1942 14.9763H8.19899C8.19899 15.8 8.86543 16.4739 9.69662 16.4739Z" fill="#A3AED0"/>
</g>
<defs>
<clipPath id="clip0_41_205">
<rect width="17.9716" height="17.9716" fill="white" transform="translate(0.710938)"/>
</clipPath>
</defs>
</svg>
