<svg xmlns="http://www.w3.org/2000/svg" width="20" height="19" viewBox="0 0 20 19" fill="none">
  <path d="M18.091 6.65558C16.2819 6.65558 15.5422 5.37622 16.4418 3.807C16.9615 2.89745 16.6517 1.73803 15.7421 1.21829L14.013 0.228787C13.2234 -0.240978 12.2039 0.038882 11.7341 0.828488L11.6242 1.01839C10.7246 2.58761 9.24538 2.58761 8.33584 1.01839L8.22589 0.828488C7.77611 0.038882 6.75662 -0.240978 5.96702 0.228787L4.23788 1.21829C3.32834 1.73803 3.01849 2.90745 3.53823 3.81699C4.44778 5.37622 3.70815 6.65558 1.89905 6.65558C0.859571 6.65558 0 7.50515 0 8.55463V10.3137C0 11.3532 0.849576 12.2128 1.89905 12.2128C3.70815 12.2128 4.44778 13.4922 3.53823 15.0614C3.01849 15.9709 3.32834 17.1303 4.23788 17.6501L5.96702 18.6396C6.75662 19.1094 7.77612 18.8295 8.24588 18.0399L8.35583 17.85C9.25538 16.2808 10.7346 16.2808 11.6442 17.85L11.7541 18.0399C12.2239 18.8295 13.2434 19.1094 14.033 18.6396L15.7621 17.6501C16.6717 17.1303 16.9815 15.9609 16.4618 15.0614C15.5522 13.4922 16.2919 12.2128 18.101 12.2128C19.1404 12.2128 20 11.3632 20 10.3137V8.55463C19.99 7.51515 19.1404 6.65558 18.091 6.65558ZM9.99501 12.6826C8.2059 12.6826 6.74663 11.2233 6.74663 9.43419C6.74663 7.64508 8.2059 6.18581 9.99501 6.18581C11.7841 6.18581 13.2434 7.64508 13.2434 9.43419C13.2434 11.2233 11.7841 12.6826 9.99501 12.6826Z" fill="#A38EFF"/>
</svg>